<mxfile host="65bd71144e">
    <diagram id="4sxwRw-hY-lJQef8hA_G" name="Hardware">
        <mxGraphModel dx="1888" dy="792" grid="1" gridSize="10" guides="1" tooltips="1" connect="1" arrows="1" fold="1" page="1" pageScale="1" pageWidth="850" pageHeight="1100" math="0" shadow="0">
            <root>
                <mxCell id="0"/>
                <mxCell id="1" parent="0"/>
                <mxCell id="6" value="" style="group;" parent="1" vertex="1" connectable="0">
                    <mxGeometry x="340" y="180" width="120" height="340" as="geometry"/>
                </mxCell>
                <mxCell id="4" value="Measurement and actuation unit&lt;br&gt;(MAU)" style="rounded=1;whiteSpace=wrap;html=1;fillColor=#60a917;fontColor=#ffffff;strokeColor=#2D7600;gradientColor=#00FF00;" parent="6" vertex="1">
                    <mxGeometry width="120" height="340" as="geometry"/>
                </mxCell>
                <mxCell id="5" value="Arduino" style="text;html=1;align=center;verticalAlign=middle;resizable=0;points=[];autosize=1;strokeColor=none;fillColor=none;" parent="6" vertex="1">
                    <mxGeometry x="30" y="10" width="60" height="30" as="geometry"/>
                </mxCell>
                <mxCell id="7" value="" style="group" parent="1" vertex="1" connectable="0">
                    <mxGeometry x="70" y="180" width="120" height="340" as="geometry"/>
                </mxCell>
                <mxCell id="2" value="Embedded communication interface&lt;br&gt;(ECI)" style="rounded=1;whiteSpace=wrap;html=1;fillColor=#1ba1e2;fontColor=#ffffff;strokeColor=#006EAF;gradientColor=#00FFFF;" parent="7" vertex="1">
                    <mxGeometry width="120" height="340" as="geometry"/>
                </mxCell>
                <mxCell id="3" value="ESP32" style="text;html=1;align=center;verticalAlign=middle;resizable=0;points=[];autosize=1;strokeColor=none;fillColor=none;" parent="7" vertex="1">
                    <mxGeometry x="30" y="10" width="60" height="30" as="geometry"/>
                </mxCell>
                <mxCell id="9" value="M" style="verticalLabelPosition=middle;shadow=0;dashed=0;align=center;html=1;verticalAlign=middle;strokeWidth=1;shape=ellipse;aspect=fixed;fontSize=35;fillColor=none;gradientColor=none;" parent="1" vertex="1">
                    <mxGeometry x="490" y="580" width="60" height="60" as="geometry"/>
                </mxCell>
                <mxCell id="11" style="edgeStyle=none;html=1;exitX=1;exitY=0.5;exitDx=0;exitDy=0;endArrow=none;endFill=0;" parent="1" source="10" target="9" edge="1">
                    <mxGeometry relative="1" as="geometry"/>
                </mxCell>
                <mxCell id="10" value="DM556D&lt;br&gt;Driver" style="shape=hexagon;perimeter=hexagonPerimeter2;whiteSpace=wrap;html=1;fixedSize=1;fillColor=none;gradientColor=none;" parent="1" vertex="1">
                    <mxGeometry x="340" y="570" width="120" height="80" as="geometry"/>
                </mxCell>
                <mxCell id="12" style="edgeStyle=none;html=1;exitX=0.25;exitY=1;exitDx=0;exitDy=0;entryX=0.25;entryY=0;entryDx=0;entryDy=0;entryPerimeter=0;endArrow=classic;endFill=1;" parent="1" source="4" target="10" edge="1">
                    <mxGeometry relative="1" as="geometry"/>
                </mxCell>
                <mxCell id="19" value="STEP" style="edgeLabel;html=1;align=center;verticalAlign=middle;resizable=0;points=[];" parent="12" vertex="1" connectable="0">
                    <mxGeometry x="0.2309" relative="1" as="geometry">
                        <mxPoint y="-10" as="offset"/>
                    </mxGeometry>
                </mxCell>
                <mxCell id="13" style="edgeStyle=none;html=1;exitX=0.5;exitY=1;exitDx=0;exitDy=0;entryX=0.5;entryY=0;entryDx=0;entryDy=0;endArrow=classic;endFill=1;" parent="1" source="4" target="10" edge="1">
                    <mxGeometry relative="1" as="geometry"/>
                </mxCell>
                <mxCell id="18" value="DIR" style="edgeLabel;html=1;align=center;verticalAlign=middle;resizable=0;points=[];" parent="13" vertex="1" connectable="0">
                    <mxGeometry x="0.2608" y="1" relative="1" as="geometry">
                        <mxPoint x="-1" y="-11" as="offset"/>
                    </mxGeometry>
                </mxCell>
                <mxCell id="15" style="edgeStyle=none;html=1;exitX=0.75;exitY=1;exitDx=0;exitDy=0;entryX=0.732;entryY=-0.005;entryDx=0;entryDy=0;entryPerimeter=0;endArrow=classic;endFill=1;" parent="1" source="4" target="10" edge="1">
                    <mxGeometry relative="1" as="geometry"/>
                </mxCell>
                <mxCell id="17" value="EN" style="edgeLabel;html=1;align=center;verticalAlign=middle;resizable=0;points=[];" parent="15" vertex="1" connectable="0">
                    <mxGeometry x="0.215" y="1" relative="1" as="geometry">
                        <mxPoint y="-9" as="offset"/>
                    </mxGeometry>
                </mxCell>
                <mxCell id="20" value="" style="shape=flexArrow;endArrow=classic;html=1;entryX=0;entryY=0.25;entryDx=0;entryDy=0;exitX=1;exitY=0.25;exitDx=0;exitDy=0;startArrow=block;fillColor=#fad7ac;strokeColor=#b46504;" parent="1" source="2" target="4" edge="1">
                    <mxGeometry width="50" height="50" relative="1" as="geometry">
                        <mxPoint x="260" y="330" as="sourcePoint"/>
                        <mxPoint x="310" y="280" as="targetPoint"/>
                    </mxGeometry>
                </mxCell>
                <mxCell id="37" value="" style="edgeStyle=none;html=1;fontSize=9;startArrow=block;endArrow=classic;endFill=1;shape=flexArrow;fillColor=#fad7ac;strokeColor=#b46504;" parent="1" source="35" edge="1">
                    <mxGeometry relative="1" as="geometry">
                        <mxPoint x="130" y="180" as="targetPoint"/>
                    </mxGeometry>
                </mxCell>
                <mxCell id="38" value="&lt;font style=&quot;font-size: 16px;&quot;&gt;UART&lt;/font&gt;" style="edgeLabel;html=1;align=center;verticalAlign=middle;resizable=0;points=[];fontSize=9;" parent="37" vertex="1" connectable="0">
                    <mxGeometry x="0.4095" y="1" relative="1" as="geometry">
                        <mxPoint x="29" y="-20" as="offset"/>
                    </mxGeometry>
                </mxCell>
                <mxCell id="35" value="&lt;font color=&quot;#000000&quot;&gt;Kawasaki Controller&lt;/font&gt;" style="shape=cylinder3;whiteSpace=wrap;html=1;boundedLbl=1;backgroundOutline=1;size=15;labelBackgroundColor=none;fontSize=9;fillColor=#fff2cc;gradientColor=#ffd966;strokeColor=#d6b656;" parent="1" vertex="1">
                    <mxGeometry x="100" width="60" height="80" as="geometry"/>
                </mxCell>
                <mxCell id="46" value="" style="shape=flexArrow;endArrow=classic;startArrow=classic;html=1;exitX=1;exitY=0.25;exitDx=0;exitDy=0;fillColor=#fad7ac;strokeColor=#b46504;" parent="1" source="4" target="40" edge="1">
                    <mxGeometry width="100" height="100" relative="1" as="geometry">
                        <mxPoint x="370" y="480" as="sourcePoint"/>
                        <mxPoint x="560" y="270" as="targetPoint"/>
                    </mxGeometry>
                </mxCell>
                <mxCell id="47" value="&lt;font style=&quot;font-size: 16px;&quot;&gt;UART&lt;/font&gt;" style="text;html=1;align=center;verticalAlign=middle;resizable=0;points=[];autosize=1;strokeColor=none;fillColor=none;" parent="1" vertex="1">
                    <mxGeometry x="495" y="230" width="70" height="30" as="geometry"/>
                </mxCell>
                <mxCell id="48" value="" style="group" parent="1" vertex="1" connectable="0">
                    <mxGeometry x="600" y="210" width="161.15999999999997" height="150" as="geometry"/>
                </mxCell>
                <mxCell id="40" value="" style="html=1;verticalLabelPosition=bottom;verticalAlign=top;outlineConnect=0;shadow=0;dashed=0;shape=mxgraph.rack.hpe_aruba.switches.j9828a_5400r_700w_poeplus_zl2_power_supply;" parent="48" vertex="1">
                    <mxGeometry width="161.16" height="110" as="geometry"/>
                </mxCell>
                <mxCell id="41" value="Programmable Power&amp;nbsp;&lt;br&gt;Supply" style="text;html=1;align=center;verticalAlign=middle;resizable=0;points=[];autosize=1;strokeColor=none;fillColor=none;" parent="48" vertex="1">
                    <mxGeometry x="10" y="110" width="140" height="40" as="geometry"/>
                </mxCell>
                <mxCell id="51" value="" style="group" parent="1" vertex="1" connectable="0">
                    <mxGeometry x="620.58" y="70" width="120" height="80" as="geometry"/>
                </mxCell>
                <mxCell id="49" value="" style="shape=document;whiteSpace=wrap;html=1;boundedLbl=1;fontSize=16;rotation=-180;fillColor=#0050ef;fontColor=#ffffff;strokeColor=#001DBC;" parent="51" vertex="1">
                    <mxGeometry y="7.105427357601002e-15" width="120" height="80" as="geometry"/>
                </mxCell>
                <mxCell id="50" value="Anodizing" style="text;html=1;align=center;verticalAlign=middle;resizable=0;points=[];autosize=1;strokeColor=none;fillColor=none;fontSize=16;" parent="51" vertex="1">
                    <mxGeometry x="15" y="40.00000000000001" width="90" height="30" as="geometry"/>
                </mxCell>
                <mxCell id="52" value="" style="edgeStyle=none;html=1;fontSize=16;" parent="1" source="40" edge="1">
                    <mxGeometry relative="1" as="geometry">
                        <mxPoint x="681" y="150" as="targetPoint"/>
                    </mxGeometry>
                </mxCell>
                <mxCell id="54" value="" style="group" parent="1" vertex="1" connectable="0">
                    <mxGeometry x="620" y="395" width="120" height="80" as="geometry"/>
                </mxCell>
                <mxCell id="55" value="" style="shape=document;whiteSpace=wrap;html=1;boundedLbl=1;fontSize=16;rotation=-180;fillColor=#f0a30a;fontColor=#000000;strokeColor=#BD7000;gradientColor=none;gradientDirection=north;" parent="54" vertex="1">
                    <mxGeometry y="7.105427357601002e-15" width="120" height="80" as="geometry"/>
                </mxCell>
                <mxCell id="56" value="Acid Etching" style="text;html=1;align=center;verticalAlign=middle;resizable=0;points=[];autosize=1;strokeColor=none;fillColor=none;fontSize=16;" parent="54" vertex="1">
                    <mxGeometry x="5" y="40.00000000000001" width="110" height="30" as="geometry"/>
                </mxCell>
                <mxCell id="57" style="edgeStyle=none;html=1;exitX=1;exitY=0.5;exitDx=0;exitDy=0;entryX=1;entryY=0.75;entryDx=0;entryDy=0;fontSize=16;" parent="1" source="55" target="4" edge="1">
                    <mxGeometry relative="1" as="geometry"/>
                </mxCell>
                <mxCell id="58" value="Analog Voltage" style="edgeLabel;html=1;align=center;verticalAlign=middle;resizable=0;points=[];fontSize=16;" parent="57" vertex="1" connectable="0">
                    <mxGeometry x="0.3089" y="-2" relative="1" as="geometry">
                        <mxPoint x="25" y="2" as="offset"/>
                    </mxGeometry>
                </mxCell>
                <mxCell id="31" value="UART" style="text;html=1;align=center;verticalAlign=middle;resizable=0;points=[];autosize=1;strokeColor=none;fillColor=none;fontSize=16;labelBackgroundColor=none;" parent="1" vertex="1">
                    <mxGeometry x="230" y="230" width="70" height="30" as="geometry"/>
                </mxCell>
                <mxCell id="63" style="edgeStyle=none;html=1;exitX=0.5;exitY=0;exitDx=0;exitDy=0;fontSize=16;startArrow=classic;startFill=1;endArrow=none;endFill=0;" parent="1" source="59" edge="1">
                    <mxGeometry relative="1" as="geometry">
                        <mxPoint x="264.82352941176487" y="270" as="targetPoint"/>
                    </mxGeometry>
                </mxCell>
                <mxCell id="59" value="&lt;font color=&quot;#000000&quot;&gt;UART COMMANDS&lt;/font&gt;" style="swimlane;fontStyle=0;childLayout=stackLayout;horizontal=1;startSize=30;horizontalStack=0;resizeParent=1;resizeParentMax=0;resizeLast=0;collapsible=1;marginBottom=0;whiteSpace=wrap;html=1;fontSize=16;fillColor=#fff2cc;gradientColor=#ffd966;strokeColor=#d6b656;" parent="1" vertex="1">
                    <mxGeometry x="180" y="690" width="175" height="60" as="geometry"/>
                </mxCell>
                <mxCell id="60" value="MOTOR|&amp;lt;ON|OFF&amp;gt;" style="text;strokeColor=none;fillColor=none;align=left;verticalAlign=middle;spacingLeft=4;spacingRight=4;overflow=hidden;points=[[0,0.5],[1,0.5]];portConstraint=eastwest;rotatable=0;whiteSpace=wrap;html=1;fontSize=16;" parent="59" vertex="1">
                    <mxGeometry y="30" width="175" height="30" as="geometry"/>
                </mxCell>
                <mxCell id="76" value="&lt;span style=&quot;font-weight: normal;&quot;&gt;&lt;font color=&quot;#000000&quot;&gt;COMMAND SYNTAX&lt;/font&gt;&lt;/span&gt;" style="swimlane;whiteSpace=wrap;html=1;fontSize=16;fillColor=#fff2cc;gradientColor=#ffd966;strokeColor=#d6b656;" parent="1" vertex="1">
                    <mxGeometry x="449.99999999999994" y="690" width="340" height="60" as="geometry"/>
                </mxCell>
                <mxCell id="77" value="COMMAND|PARAMETER" style="text;html=1;align=center;verticalAlign=middle;resizable=0;points=[];autosize=1;strokeColor=none;fillColor=none;fontSize=16;" parent="76" vertex="1">
                    <mxGeometry x="70" y="25" width="210" height="30" as="geometry"/>
                </mxCell>
                <mxCell id="78" value="&lt;font color=&quot;#000000&quot;&gt;UART COMMANDS FROM ROBOT&lt;/font&gt;" style="swimlane;fontStyle=0;childLayout=stackLayout;horizontal=1;startSize=30;horizontalStack=0;resizeParent=1;resizeParentMax=0;resizeLast=0;collapsible=1;marginBottom=0;whiteSpace=wrap;html=1;fontSize=16;fillColor=#fff2cc;gradientColor=#ffd966;strokeColor=#d6b656;" parent="1" vertex="1">
                    <mxGeometry x="-290" y="190" width="295" height="120" as="geometry"/>
                </mxCell>
                <mxCell id="79" value="MOTOR" style="text;strokeColor=none;fillColor=none;align=left;verticalAlign=middle;spacingLeft=4;spacingRight=4;overflow=hidden;points=[[0,0.5],[1,0.5]];portConstraint=eastwest;rotatable=0;whiteSpace=wrap;html=1;fontSize=16;" parent="78" vertex="1">
                    <mxGeometry y="30" width="295" height="30" as="geometry"/>
                </mxCell>
                <mxCell id="80" value="START" style="text;strokeColor=none;fillColor=none;align=left;verticalAlign=middle;spacingLeft=4;spacingRight=4;overflow=hidden;points=[[0,0.5],[1,0.5]];portConstraint=eastwest;rotatable=0;whiteSpace=wrap;html=1;fontSize=16;" parent="78" vertex="1">
                    <mxGeometry y="60" width="295" height="30" as="geometry"/>
                </mxCell>
                <mxCell id="82" value="END" style="text;strokeColor=none;fillColor=none;align=left;verticalAlign=middle;spacingLeft=4;spacingRight=4;overflow=hidden;points=[[0,0.5],[1,0.5]];portConstraint=eastwest;rotatable=0;whiteSpace=wrap;html=1;fontSize=16;" parent="78" vertex="1">
                    <mxGeometry y="90" width="295" height="30" as="geometry"/>
                </mxCell>
                <mxCell id="81" value="" style="edgeStyle=none;orthogonalLoop=1;jettySize=auto;html=1;fontSize=16;entryX=0.5;entryY=0;entryDx=0;entryDy=0;" parent="1" target="78" edge="1">
                    <mxGeometry width="100" relative="1" as="geometry">
                        <mxPoint x="130" y="130" as="sourcePoint"/>
                        <mxPoint x="80" y="180" as="targetPoint"/>
                        <Array as="points">
                            <mxPoint x="-142" y="130"/>
                        </Array>
                    </mxGeometry>
                </mxCell>
                <mxCell id="83" value="&lt;font color=&quot;#000000&quot;&gt;UART COMMANDS TO ROBOT&lt;/font&gt;" style="swimlane;fontStyle=0;childLayout=stackLayout;horizontal=1;startSize=30;horizontalStack=0;resizeParent=1;resizeParentMax=0;resizeLast=0;collapsible=1;marginBottom=0;whiteSpace=wrap;html=1;fontSize=16;fillColor=#fff2cc;gradientColor=#ffd966;strokeColor=#d6b656;" parent="1" vertex="1">
                    <mxGeometry x="-290" y="310" width="295" height="120" as="geometry"/>
                </mxCell>
                <mxCell id="84" value="OK" style="text;strokeColor=none;fillColor=none;align=left;verticalAlign=middle;spacingLeft=4;spacingRight=4;overflow=hidden;points=[[0,0.5],[1,0.5]];portConstraint=eastwest;rotatable=0;whiteSpace=wrap;html=1;fontSize=16;" parent="83" vertex="1">
                    <mxGeometry y="30" width="295" height="30" as="geometry"/>
                </mxCell>
                <mxCell id="85" value="ERROR" style="text;strokeColor=none;fillColor=none;align=left;verticalAlign=middle;spacingLeft=4;spacingRight=4;overflow=hidden;points=[[0,0.5],[1,0.5]];portConstraint=eastwest;rotatable=0;whiteSpace=wrap;html=1;fontSize=16;" parent="83" vertex="1">
                    <mxGeometry y="60" width="295" height="30" as="geometry"/>
                </mxCell>
                <mxCell id="86" value="PROGRAM" style="text;strokeColor=none;fillColor=none;align=left;verticalAlign=middle;spacingLeft=4;spacingRight=4;overflow=hidden;points=[[0,0.5],[1,0.5]];portConstraint=eastwest;rotatable=0;whiteSpace=wrap;html=1;fontSize=16;" parent="83" vertex="1">
                    <mxGeometry y="90" width="295" height="30" as="geometry"/>
                </mxCell>
            </root>
        </mxGraphModel>
    </diagram>
    <diagram id="Mm7gPb7LmTDDJV25BshC" name="Tasks">
        <mxGraphModel dx="1038" dy="792" grid="1" gridSize="10" guides="1" tooltips="1" connect="1" arrows="1" fold="1" page="1" pageScale="1" pageWidth="850" pageHeight="1100" math="0" shadow="0">
            <root>
                <mxCell id="0"/>
                <mxCell id="1" parent="0"/>
                <mxCell id="7w0McQu4VKyd6_ZrxGg--41" style="edgeStyle=none;html=1;exitX=0;exitY=0.5;exitDx=0;exitDy=0;entryX=1;entryY=0.5;entryDx=0;entryDy=0;fontColor=#FFFFFF;startArrow=none;startFill=0;endArrow=classic;endFill=1;" parent="1" source="7w0McQu4VKyd6_ZrxGg--1" target="7w0McQu4VKyd6_ZrxGg--38" edge="1">
                    <mxGeometry relative="1" as="geometry"/>
                </mxCell>
                <mxCell id="7w0McQu4VKyd6_ZrxGg--1" value="&lt;span style=&quot;font-size: 16px;&quot;&gt;HTTP SERVER&lt;/span&gt;" style="rounded=1;whiteSpace=wrap;html=1;fillColor=#f8cecc;gradientColor=#ea6b66;strokeColor=#b85450;" parent="1" vertex="1">
                    <mxGeometry x="520" y="190" width="120" height="60" as="geometry"/>
                </mxCell>
                <mxCell id="7w0McQu4VKyd6_ZrxGg--3" style="edgeStyle=none;html=1;exitX=0.07;exitY=0.4;exitDx=0;exitDy=0;exitPerimeter=0;entryX=1;entryY=0.5;entryDx=0;entryDy=0;" parent="1" source="7w0McQu4VKyd6_ZrxGg--2" target="7w0McQu4VKyd6_ZrxGg--1" edge="1">
                    <mxGeometry relative="1" as="geometry"/>
                </mxCell>
                <mxCell id="7w0McQu4VKyd6_ZrxGg--4" value="IoT &lt;br&gt;Command" style="edgeLabel;html=1;align=center;verticalAlign=middle;resizable=0;points=[];" parent="7w0McQu4VKyd6_ZrxGg--3" vertex="1" connectable="0">
                    <mxGeometry x="-0.1428" y="-2" relative="1" as="geometry">
                        <mxPoint as="offset"/>
                    </mxGeometry>
                </mxCell>
                <mxCell id="7w0McQu4VKyd6_ZrxGg--2" value="FIWARE" style="ellipse;shape=cloud;whiteSpace=wrap;html=1;fillColor=#dae8fc;gradientColor=#7ea6e0;strokeColor=#6c8ebf;" parent="1" vertex="1">
                    <mxGeometry x="720" y="180" width="120" height="80" as="geometry"/>
                </mxCell>
                <mxCell id="1anccf_VWUf1HPo-AuoP-77" value="" style="rounded=1;whiteSpace=wrap;html=1;fontSize=16;fillColor=#FF9999;strokeColor=#FF9999;fillStyle=hatch;" parent="1" vertex="1">
                    <mxGeometry x="390" y="660" width="120" height="110" as="geometry"/>
                </mxCell>
                <mxCell id="7w0McQu4VKyd6_ZrxGg--28" style="edgeStyle=none;html=1;exitX=1;exitY=0.75;exitDx=0;exitDy=0;entryX=0;entryY=0.5;entryDx=0;entryDy=0;fontColor=#FFFFFF;startArrow=none;startFill=0;endArrow=classic;endFill=1;" parent="1" source="1anccf_VWUf1HPo-AuoP-78" target="1anccf_VWUf1HPo-AuoP-85" edge="1">
                    <mxGeometry relative="1" as="geometry"/>
                </mxCell>
                <mxCell id="gZwA6Dh3cUBUy922403l-12" style="edgeStyle=none;html=1;exitX=0.75;exitY=0;exitDx=0;exitDy=0;entryX=0.5;entryY=1;entryDx=0;entryDy=0;fontColor=#FFFFFF;startArrow=none;startFill=0;endArrow=classic;endFill=1;" parent="1" source="1anccf_VWUf1HPo-AuoP-78" target="gZwA6Dh3cUBUy922403l-3" edge="1">
                    <mxGeometry relative="1" as="geometry">
                        <Array as="points">
                            <mxPoint x="310" y="610"/>
                            <mxPoint x="360" y="610"/>
                        </Array>
                    </mxGeometry>
                </mxCell>
                <mxCell id="1anccf_VWUf1HPo-AuoP-78" value="&lt;font style=&quot;font-size: 16px;&quot;&gt;UART&lt;br&gt;TASK&lt;/font&gt;" style="rounded=1;whiteSpace=wrap;html=1;fillColor=#e6d0de;gradientColor=#d5739d;strokeColor=#996185;" parent="1" vertex="1">
                    <mxGeometry x="220" y="665" width="120" height="100" as="geometry"/>
                </mxCell>
                <mxCell id="7w0McQu4VKyd6_ZrxGg--32" style="edgeStyle=none;html=1;exitX=0;exitY=0.5;exitDx=0;exitDy=0;entryX=1;entryY=0.5;entryDx=0;entryDy=0;fontColor=#FFFFFF;startArrow=none;startFill=0;endArrow=classic;endFill=1;" parent="1" source="1anccf_VWUf1HPo-AuoP-79" target="7w0McQu4VKyd6_ZrxGg--5" edge="1">
                    <mxGeometry relative="1" as="geometry"/>
                </mxCell>
                <mxCell id="7w0McQu4VKyd6_ZrxGg--34" style="edgeStyle=none;html=1;exitX=0;exitY=0.25;exitDx=0;exitDy=0;entryX=1;entryY=0.5;entryDx=0;entryDy=0;fontColor=#FFFFFF;startArrow=none;startFill=0;endArrow=classic;endFill=1;" parent="1" source="1anccf_VWUf1HPo-AuoP-79" target="1anccf_VWUf1HPo-AuoP-82" edge="1">
                    <mxGeometry relative="1" as="geometry"/>
                </mxCell>
                <mxCell id="1WlDZUlzAuFxIltpWQkm-7" style="edgeStyle=none;html=1;exitX=1;exitY=0.5;exitDx=0;exitDy=0;fontColor=#FFFFFF;startArrow=classic;startFill=1;endArrow=classic;endFill=1;" parent="1" source="1anccf_VWUf1HPo-AuoP-79" target="1WlDZUlzAuFxIltpWQkm-6" edge="1">
                    <mxGeometry relative="1" as="geometry"/>
                </mxCell>
                <mxCell id="1WlDZUlzAuFxIltpWQkm-13" value="" style="edgeStyle=none;html=1;fontColor=#FFFFFF;startArrow=none;startFill=0;endArrow=none;endFill=0;" parent="1" source="1anccf_VWUf1HPo-AuoP-79" target="1WlDZUlzAuFxIltpWQkm-12" edge="1">
                    <mxGeometry relative="1" as="geometry"/>
                </mxCell>
                <mxCell id="1anccf_VWUf1HPo-AuoP-79" value="&lt;span style=&quot;font-size: 16px;&quot;&gt;MAU&lt;br&gt;&lt;/span&gt;&lt;font style=&quot;font-size: 16px;&quot;&gt;TASK&lt;/font&gt;" style="rounded=1;whiteSpace=wrap;html=1;fillColor=#e6d0de;gradientColor=#d5739d;strokeColor=#996185;" parent="1" vertex="1">
                    <mxGeometry x="560" y="665" width="120" height="100" as="geometry"/>
                </mxCell>
                <mxCell id="7w0McQu4VKyd6_ZrxGg--35" style="edgeStyle=none;html=1;exitX=0;exitY=0.5;exitDx=0;exitDy=0;entryX=1;entryY=0.25;entryDx=0;entryDy=0;fontColor=#FFFFFF;startArrow=none;startFill=0;endArrow=classic;endFill=1;" parent="1" source="1anccf_VWUf1HPo-AuoP-82" target="1anccf_VWUf1HPo-AuoP-78" edge="1">
                    <mxGeometry relative="1" as="geometry"/>
                </mxCell>
                <mxCell id="1anccf_VWUf1HPo-AuoP-82" value="send" style="rounded=0;whiteSpace=wrap;html=1;fontSize=16;" parent="1" vertex="1">
                    <mxGeometry x="420" y="680" width="60" height="20" as="geometry"/>
                </mxCell>
                <mxCell id="7w0McQu4VKyd6_ZrxGg--30" style="edgeStyle=none;html=1;exitX=1;exitY=0.5;exitDx=0;exitDy=0;entryX=0;entryY=0.75;entryDx=0;entryDy=0;fontColor=#FFFFFF;startArrow=none;startFill=0;endArrow=classic;endFill=1;" parent="1" source="1anccf_VWUf1HPo-AuoP-85" target="1anccf_VWUf1HPo-AuoP-79" edge="1">
                    <mxGeometry relative="1" as="geometry"/>
                </mxCell>
                <mxCell id="1anccf_VWUf1HPo-AuoP-85" value="recv" style="whiteSpace=wrap;html=1;fontSize=16;" parent="1" vertex="1">
                    <mxGeometry x="420" y="730" width="60" height="20" as="geometry"/>
                </mxCell>
                <mxCell id="7w0McQu4VKyd6_ZrxGg--31" style="edgeStyle=none;html=1;exitX=0;exitY=0.5;exitDx=0;exitDy=0;entryX=1;entryY=0.5;entryDx=0;entryDy=0;fontColor=#FFFFFF;startArrow=none;startFill=0;endArrow=classic;endFill=1;" parent="1" source="7w0McQu4VKyd6_ZrxGg--5" target="1anccf_VWUf1HPo-AuoP-78" edge="1">
                    <mxGeometry relative="1" as="geometry"/>
                </mxCell>
                <mxCell id="7w0McQu4VKyd6_ZrxGg--5" value="error" style="rounded=0;whiteSpace=wrap;html=1;fontSize=16;" parent="1" vertex="1">
                    <mxGeometry x="420" y="705" width="60" height="20" as="geometry"/>
                </mxCell>
                <mxCell id="7w0McQu4VKyd6_ZrxGg--44" style="edgeStyle=none;html=1;exitX=1;exitY=0.5;exitDx=0;exitDy=0;entryX=0;entryY=0.5;entryDx=0;entryDy=0;fontColor=#FFFFFF;startArrow=none;startFill=0;endArrow=classic;endFill=1;" parent="1" source="7w0McQu4VKyd6_ZrxGg--36" target="7w0McQu4VKyd6_ZrxGg--43" edge="1">
                    <mxGeometry relative="1" as="geometry"/>
                </mxCell>
                <mxCell id="gZwA6Dh3cUBUy922403l-20" style="edgeStyle=none;html=1;exitX=0.25;exitY=1;exitDx=0;exitDy=0;entryX=0.5;entryY=0;entryDx=0;entryDy=0;fontColor=#FFFFFF;startArrow=none;startFill=0;endArrow=classic;endFill=1;" parent="1" source="7w0McQu4VKyd6_ZrxGg--36" target="gZwA6Dh3cUBUy922403l-14" edge="1">
                    <mxGeometry relative="1" as="geometry">
                        <Array as="points">
                            <mxPoint x="250" y="430"/>
                            <mxPoint x="220" y="430"/>
                        </Array>
                    </mxGeometry>
                </mxCell>
                <mxCell id="7w0McQu4VKyd6_ZrxGg--36" value="&lt;span style=&quot;font-size: 16px;&quot;&gt;FIWARE &lt;br&gt;TASK&lt;/span&gt;" style="rounded=1;whiteSpace=wrap;html=1;fillColor=#e6d0de;gradientColor=#d5739d;strokeColor=#996185;" parent="1" vertex="1">
                    <mxGeometry x="220" y="300" width="120" height="100" as="geometry"/>
                </mxCell>
                <mxCell id="7w0McQu4VKyd6_ZrxGg--39" value="" style="rounded=1;whiteSpace=wrap;html=1;fontSize=16;fillColor=#FF9999;strokeColor=#FF9999;fillStyle=hatch;" parent="1" vertex="1">
                    <mxGeometry x="360" y="200" width="130" height="40" as="geometry"/>
                </mxCell>
                <mxCell id="7w0McQu4VKyd6_ZrxGg--42" style="edgeStyle=none;html=1;exitX=0;exitY=0.5;exitDx=0;exitDy=0;entryX=0.5;entryY=0;entryDx=0;entryDy=0;fontColor=#FFFFFF;startArrow=none;startFill=0;endArrow=classic;endFill=1;" parent="1" source="7w0McQu4VKyd6_ZrxGg--38" target="7w0McQu4VKyd6_ZrxGg--36" edge="1">
                    <mxGeometry relative="1" as="geometry">
                        <Array as="points">
                            <mxPoint x="280" y="220"/>
                        </Array>
                    </mxGeometry>
                </mxCell>
                <mxCell id="7w0McQu4VKyd6_ZrxGg--38" value="command" style="rounded=0;whiteSpace=wrap;html=1;fontSize=16;" parent="1" vertex="1">
                    <mxGeometry x="380" y="210" width="90" height="20" as="geometry"/>
                </mxCell>
                <mxCell id="7w0McQu4VKyd6_ZrxGg--45" style="edgeStyle=none;html=1;exitX=1;exitY=0.5;exitDx=0;exitDy=0;entryX=0.55;entryY=0.95;entryDx=0;entryDy=0;entryPerimeter=0;fontColor=#FFFFFF;startArrow=none;startFill=0;endArrow=classic;endFill=1;" parent="1" source="7w0McQu4VKyd6_ZrxGg--43" target="7w0McQu4VKyd6_ZrxGg--2" edge="1">
                    <mxGeometry relative="1" as="geometry">
                        <Array as="points">
                            <mxPoint x="786" y="350"/>
                        </Array>
                    </mxGeometry>
                </mxCell>
                <mxCell id="7w0McQu4VKyd6_ZrxGg--46" value="IoT&lt;br&gt;Measurement" style="edgeLabel;html=1;align=center;verticalAlign=middle;resizable=0;points=[];fontColor=#FFFFFF;" parent="7w0McQu4VKyd6_ZrxGg--45" vertex="1" connectable="0">
                    <mxGeometry x="-0.4604" y="2" relative="1" as="geometry">
                        <mxPoint as="offset"/>
                    </mxGeometry>
                </mxCell>
                <mxCell id="7w0McQu4VKyd6_ZrxGg--43" value="&lt;span style=&quot;font-size: 16px;&quot;&gt;HTTP CLIENT API&lt;/span&gt;" style="rounded=1;whiteSpace=wrap;html=1;fillColor=#f8cecc;gradientColor=#ea6b66;strokeColor=#b85450;" parent="1" vertex="1">
                    <mxGeometry x="520" y="320" width="120" height="60" as="geometry"/>
                </mxCell>
                <mxCell id="gZwA6Dh3cUBUy922403l-2" style="edgeStyle=none;html=1;exitX=0.5;exitY=1;exitDx=0;exitDy=0;fontColor=#FFFFFF;startArrow=none;startFill=0;endArrow=none;endFill=0;entryX=0.5;entryY=0;entryDx=0;entryDy=0;" parent="1" source="gZwA6Dh3cUBUy922403l-1" target="7w0McQu4VKyd6_ZrxGg--1" edge="1">
                    <mxGeometry relative="1" as="geometry"/>
                </mxCell>
                <mxCell id="gZwA6Dh3cUBUy922403l-1" value="&lt;h1&gt;&lt;font color=&quot;#000000&quot;&gt;HTTP Server&lt;/font&gt;&lt;/h1&gt;&lt;div&gt;&lt;font color=&quot;#000000&quot;&gt;Sends the payload directly to the FIWARE Task&lt;/font&gt;&lt;/div&gt;" style="text;html=1;strokeColor=#36393d;fillColor=#eeeeee;spacing=5;spacingTop=-20;whiteSpace=wrap;overflow=hidden;rounded=0;" parent="1" vertex="1">
                    <mxGeometry x="485" y="10" width="190" height="120" as="geometry"/>
                </mxCell>
                <mxCell id="gZwA6Dh3cUBUy922403l-11" value="" style="group" parent="1" vertex="1" connectable="0">
                    <mxGeometry x="310" y="440" width="75" height="160" as="geometry"/>
                </mxCell>
                <mxCell id="gZwA6Dh3cUBUy922403l-9" value="" style="group" parent="gZwA6Dh3cUBUy922403l-11" vertex="1" connectable="0">
                    <mxGeometry x="25" y="15" width="50" height="130" as="geometry"/>
                </mxCell>
                <mxCell id="gZwA6Dh3cUBUy922403l-3" value="" style="rounded=0;whiteSpace=wrap;html=1;fillColor=#eeeeee;strokeColor=#36393d;container=0;" parent="gZwA6Dh3cUBUy922403l-9" vertex="1">
                    <mxGeometry width="50" height="130" as="geometry"/>
                </mxCell>
                <mxCell id="gZwA6Dh3cUBUy922403l-4" value="" style="rounded=0;whiteSpace=wrap;html=1;fontColor=#FFFFFF;container=0;" parent="gZwA6Dh3cUBUy922403l-9" vertex="1">
                    <mxGeometry x="15" y="10" width="20" height="20" as="geometry"/>
                </mxCell>
                <mxCell id="gZwA6Dh3cUBUy922403l-5" value="" style="rounded=0;whiteSpace=wrap;html=1;fillColor=#cce5ff;strokeColor=#36393d;container=0;" parent="gZwA6Dh3cUBUy922403l-9" vertex="1">
                    <mxGeometry x="15" y="40" width="20" height="20" as="geometry"/>
                </mxCell>
                <mxCell id="gZwA6Dh3cUBUy922403l-6" value="" style="rounded=0;whiteSpace=wrap;html=1;fillColor=#cce5ff;strokeColor=#36393d;container=0;" parent="gZwA6Dh3cUBUy922403l-9" vertex="1">
                    <mxGeometry x="15" y="70" width="20" height="20" as="geometry"/>
                </mxCell>
                <mxCell id="gZwA6Dh3cUBUy922403l-7" value="" style="rounded=0;whiteSpace=wrap;html=1;fillColor=#cce5ff;strokeColor=#36393d;container=0;" parent="gZwA6Dh3cUBUy922403l-9" vertex="1">
                    <mxGeometry x="15" y="100" width="20" height="20" as="geometry"/>
                </mxCell>
                <mxCell id="gZwA6Dh3cUBUy922403l-10" value="IoT Measurement Queue" style="text;html=1;align=center;verticalAlign=middle;resizable=0;points=[];autosize=1;strokeColor=none;fillColor=none;fontColor=#FFFFFF;rotation=-90;" parent="gZwA6Dh3cUBUy922403l-11" vertex="1">
                    <mxGeometry x="-65" y="65" width="160" height="30" as="geometry"/>
                </mxCell>
                <mxCell id="gZwA6Dh3cUBUy922403l-13" style="edgeStyle=none;html=1;exitX=0.5;exitY=0;exitDx=0;exitDy=0;entryX=0.75;entryY=1;entryDx=0;entryDy=0;fontColor=#FFFFFF;startArrow=none;startFill=0;endArrow=classic;endFill=1;" parent="1" source="gZwA6Dh3cUBUy922403l-3" target="7w0McQu4VKyd6_ZrxGg--36" edge="1">
                    <mxGeometry relative="1" as="geometry">
                        <Array as="points">
                            <mxPoint x="360" y="430"/>
                            <mxPoint x="310" y="430"/>
                        </Array>
                    </mxGeometry>
                </mxCell>
                <mxCell id="gZwA6Dh3cUBUy922403l-21" style="edgeStyle=none;html=1;exitX=0.5;exitY=1;exitDx=0;exitDy=0;entryX=0.25;entryY=0;entryDx=0;entryDy=0;fontColor=#FFFFFF;startArrow=none;startFill=0;endArrow=classic;endFill=1;" parent="1" source="gZwA6Dh3cUBUy922403l-14" target="1anccf_VWUf1HPo-AuoP-78" edge="1">
                    <mxGeometry relative="1" as="geometry">
                        <Array as="points">
                            <mxPoint x="220" y="610"/>
                            <mxPoint x="250" y="610"/>
                        </Array>
                    </mxGeometry>
                </mxCell>
                <mxCell id="gZwA6Dh3cUBUy922403l-23" value="" style="group" parent="1" vertex="1" connectable="0">
                    <mxGeometry x="150" y="470" width="100" height="100" as="geometry"/>
                </mxCell>
                <mxCell id="gZwA6Dh3cUBUy922403l-18" value="" style="group;fillStyle=hatch;" parent="gZwA6Dh3cUBUy922403l-23" vertex="1" connectable="0">
                    <mxGeometry x="40" y="20" width="60" height="60" as="geometry"/>
                </mxCell>
                <mxCell id="gZwA6Dh3cUBUy922403l-14" value="" style="rounded=1;whiteSpace=wrap;html=1;fillColor=#FF9999;strokeColor=#FF9999;fillStyle=hatch;" parent="gZwA6Dh3cUBUy922403l-18" vertex="1">
                    <mxGeometry width="60" height="60" as="geometry"/>
                </mxCell>
                <mxCell id="gZwA6Dh3cUBUy922403l-15" value="" style="rounded=0;whiteSpace=wrap;html=1;fillColor=#ffcc99;strokeColor=#36393d;container=0;" parent="gZwA6Dh3cUBUy922403l-18" vertex="1">
                    <mxGeometry x="20" y="20" width="20" height="20" as="geometry"/>
                </mxCell>
                <mxCell id="gZwA6Dh3cUBUy922403l-22" value="IoT Command&lt;br&gt;and Status" style="text;html=1;align=center;verticalAlign=middle;resizable=0;points=[];autosize=1;strokeColor=none;fillColor=none;fontColor=#FFFFFF;rotation=-90;" parent="gZwA6Dh3cUBUy922403l-23" vertex="1">
                    <mxGeometry x="-29.999999999999996" y="30" width="100" height="40" as="geometry"/>
                </mxCell>
                <mxCell id="1WlDZUlzAuFxIltpWQkm-3" value="&lt;h1&gt;Critical section&lt;/h1&gt;&lt;div&gt;Critical sections in the program are marked with hatching&lt;/div&gt;&lt;div&gt;In these sections the interrupts are disabled and thus task change cannot occur&lt;/div&gt;" style="text;html=1;strokeColor=#FF9999;fillColor=#FF9999;spacing=5;spacingTop=-20;whiteSpace=wrap;overflow=hidden;rounded=1;fontColor=#FFFFFF;fillStyle=hatch;" parent="1" vertex="1">
                    <mxGeometry y="10" width="190" height="140" as="geometry"/>
                </mxCell>
                <mxCell id="1WlDZUlzAuFxIltpWQkm-5" style="edgeStyle=none;html=1;exitX=1;exitY=0.5;exitDx=0;exitDy=0;exitPerimeter=0;fontColor=#FFFFFF;startArrow=classic;startFill=1;endArrow=classic;endFill=1;" parent="1" source="1WlDZUlzAuFxIltpWQkm-4" target="1anccf_VWUf1HPo-AuoP-78" edge="1">
                    <mxGeometry relative="1" as="geometry"/>
                </mxCell>
                <mxCell id="1WlDZUlzAuFxIltpWQkm-4" value="Kawasaki Controller" style="shape=cylinder3;whiteSpace=wrap;html=1;boundedLbl=1;backgroundOutline=1;size=15;rounded=1;fillStyle=hatch;strokeColor=default;fontColor=#FFFFFF;fillColor=none;" parent="1" vertex="1">
                    <mxGeometry x="90" y="675" width="60" height="80" as="geometry"/>
                </mxCell>
                <mxCell id="1WlDZUlzAuFxIltpWQkm-6" value="Measurement&lt;br&gt;and Actuation&lt;br&gt;Unit" style="pointerEvents=1;shadow=0;dashed=0;html=1;strokeColor=none;fillColor=#FFFFFF;labelPosition=center;verticalLabelPosition=bottom;verticalAlign=top;align=center;outlineConnect=0;shape=mxgraph.veeam.cpu;rounded=1;fillStyle=auto;fontColor=#FFFFFF;" parent="1" vertex="1">
                    <mxGeometry x="757.6" y="692.6" width="44.8" height="44.8" as="geometry"/>
                </mxCell>
                <mxCell id="1WlDZUlzAuFxIltpWQkm-9" value="" style="edgeStyle=none;html=1;fontColor=#FFFFFF;startArrow=none;startFill=0;endArrow=none;endFill=0;" parent="1" source="1WlDZUlzAuFxIltpWQkm-8" target="7w0McQu4VKyd6_ZrxGg--36" edge="1">
                    <mxGeometry relative="1" as="geometry"/>
                </mxCell>
                <mxCell id="1WlDZUlzAuFxIltpWQkm-8" value="&lt;h1&gt;&lt;font color=&quot;#000000&quot;&gt;FIWARE Task&lt;/font&gt;&lt;/h1&gt;&lt;div&gt;&lt;font color=&quot;#000000&quot;&gt;Processes the incoming commands and outgoing measurements&lt;/font&gt;&lt;/div&gt;" style="text;html=1;strokeColor=#36393d;fillColor=#eeeeee;spacing=5;spacingTop=-20;whiteSpace=wrap;overflow=hidden;rounded=0;" parent="1" vertex="1">
                    <mxGeometry x="30" y="280" width="150" height="140" as="geometry"/>
                </mxCell>
                <mxCell id="1WlDZUlzAuFxIltpWQkm-11" value="" style="edgeStyle=none;html=1;fontColor=#FFFFFF;startArrow=none;startFill=0;endArrow=none;endFill=0;" parent="1" source="1WlDZUlzAuFxIltpWQkm-10" target="1anccf_VWUf1HPo-AuoP-78" edge="1">
                    <mxGeometry relative="1" as="geometry"/>
                </mxCell>
                <mxCell id="1WlDZUlzAuFxIltpWQkm-10" value="&lt;h1&gt;&lt;font color=&quot;#000000&quot;&gt;UART Task&lt;/font&gt;&lt;/h1&gt;&lt;div&gt;&lt;font color=&quot;#000000&quot;&gt;Processes incoming and outgoing messages to the robot controller&lt;/font&gt;&lt;/div&gt;" style="text;html=1;strokeColor=#36393d;fillColor=#eeeeee;spacing=5;spacingTop=-20;whiteSpace=wrap;overflow=hidden;rounded=0;" parent="1" vertex="1">
                    <mxGeometry x="205" y="820" width="150" height="110" as="geometry"/>
                </mxCell>
                <mxCell id="1WlDZUlzAuFxIltpWQkm-12" value="&lt;h1&gt;&lt;font color=&quot;#000000&quot;&gt;MAU Task&lt;/font&gt;&lt;/h1&gt;&lt;div&gt;&lt;font color=&quot;#000000&quot;&gt;Parses and forwards messages to and from the MAU&lt;/font&gt;&lt;/div&gt;" style="text;html=1;strokeColor=#36393d;fillColor=#eeeeee;spacing=5;spacingTop=-20;whiteSpace=wrap;overflow=hidden;rounded=0;" parent="1" vertex="1">
                    <mxGeometry x="545" y="820" width="150" height="110" as="geometry"/>
                </mxCell>
            </root>
        </mxGraphModel>
    </diagram>
    <diagram id="erhC6qof5hDKDXANCqeT" name="UART Task">
        <mxGraphModel dx="3356" dy="1584" grid="1" gridSize="10" guides="1" tooltips="1" connect="1" arrows="1" fold="1" page="1" pageScale="1" pageWidth="850" pageHeight="1100" math="0" shadow="0">
            <root>
                <mxCell id="0"/>
                <mxCell id="1" parent="0"/>
                <mxCell id="PQb2BEmIrWeKtVIQbU1g-1" value="UART TASK" style="swimlane;whiteSpace=wrap;html=1;fillStyle=auto;fontSize=14;fillColor=#e6d0de;gradientColor=#d5739d;strokeColor=#996185;" vertex="1" parent="1">
                    <mxGeometry width="1180" height="690" as="geometry"/>
                </mxCell>
                <mxCell id="PQb2BEmIrWeKtVIQbU1g-2" value="Wait for incoming message" style="rounded=1;whiteSpace=wrap;html=1;fillColor=#dae8fc;gradientColor=#7ea6e0;strokeColor=#6c8ebf;" vertex="1" parent="PQb2BEmIrWeKtVIQbU1g-1">
                    <mxGeometry x="115" y="90" width="120" height="60" as="geometry"/>
                </mxCell>
                <mxCell id="PQb2BEmIrWeKtVIQbU1g-3" value="&lt;font style=&quot;font-size: 14px;&quot;&gt;Timeout?&lt;/font&gt;" style="rhombus;whiteSpace=wrap;html=1;fillStyle=auto;fontSize=16;fillColor=#f0a30a;fontColor=#000000;strokeColor=#BD7000;" vertex="1" parent="PQb2BEmIrWeKtVIQbU1g-1">
                    <mxGeometry x="135" y="180" width="80" height="50" as="geometry"/>
                </mxCell>
                <mxCell id="PQb2BEmIrWeKtVIQbU1g-4" value="" style="edgeStyle=none;html=1;fontSize=14;" edge="1" parent="PQb2BEmIrWeKtVIQbU1g-1" source="PQb2BEmIrWeKtVIQbU1g-2" target="PQb2BEmIrWeKtVIQbU1g-3">
                    <mxGeometry relative="1" as="geometry"/>
                </mxCell>
                <mxCell id="PQb2BEmIrWeKtVIQbU1g-5" value="" style="edgeStyle=none;html=1;fontSize=14;" edge="1" parent="PQb2BEmIrWeKtVIQbU1g-1" source="PQb2BEmIrWeKtVIQbU1g-6" target="PQb2BEmIrWeKtVIQbU1g-38">
                    <mxGeometry relative="1" as="geometry"/>
                </mxCell>
                <mxCell id="PQb2BEmIrWeKtVIQbU1g-6" value="Yes" style="rounded=0;whiteSpace=wrap;html=1;fillStyle=auto;fontSize=14;fillColor=#60a917;strokeColor=#2D7600;fontColor=#ffffff;" vertex="1" parent="PQb2BEmIrWeKtVIQbU1g-1">
                    <mxGeometry x="255" y="190" width="60" height="30" as="geometry"/>
                </mxCell>
                <mxCell id="PQb2BEmIrWeKtVIQbU1g-7" value="" style="edgeStyle=none;html=1;fontSize=14;" edge="1" parent="PQb2BEmIrWeKtVIQbU1g-1" source="PQb2BEmIrWeKtVIQbU1g-3" target="PQb2BEmIrWeKtVIQbU1g-6">
                    <mxGeometry relative="1" as="geometry"/>
                </mxCell>
                <mxCell id="PQb2BEmIrWeKtVIQbU1g-8" value="No" style="rounded=0;whiteSpace=wrap;html=1;fillStyle=auto;fontSize=14;fillColor=#a20025;strokeColor=#6F0000;fontColor=#ffffff;" vertex="1" parent="PQb2BEmIrWeKtVIQbU1g-1">
                    <mxGeometry x="145" y="260" width="60" height="30" as="geometry"/>
                </mxCell>
                <mxCell id="PQb2BEmIrWeKtVIQbU1g-9" value="" style="edgeStyle=none;html=1;fontSize=14;" edge="1" parent="PQb2BEmIrWeKtVIQbU1g-1" source="PQb2BEmIrWeKtVIQbU1g-3" target="PQb2BEmIrWeKtVIQbU1g-8">
                    <mxGeometry relative="1" as="geometry"/>
                </mxCell>
                <mxCell id="PQb2BEmIrWeKtVIQbU1g-10" value="&lt;font style=&quot;font-size: 14px;&quot;&gt;Is send null?&lt;/font&gt;" style="rhombus;whiteSpace=wrap;html=1;fillStyle=auto;fontSize=16;fillColor=#f0a30a;fontColor=#000000;strokeColor=#BD7000;" vertex="1" parent="PQb2BEmIrWeKtVIQbU1g-1">
                    <mxGeometry x="635" y="170" width="110" height="70" as="geometry"/>
                </mxCell>
                <mxCell id="PQb2BEmIrWeKtVIQbU1g-11" style="edgeStyle=none;html=1;exitX=0.5;exitY=0;exitDx=0;exitDy=0;entryX=1;entryY=0.75;entryDx=0;entryDy=0;fontSize=14;" edge="1" parent="PQb2BEmIrWeKtVIQbU1g-1" source="PQb2BEmIrWeKtVIQbU1g-12" target="PQb2BEmIrWeKtVIQbU1g-2">
                    <mxGeometry relative="1" as="geometry">
                        <Array as="points">
                            <mxPoint x="820" y="140"/>
                        </Array>
                    </mxGeometry>
                </mxCell>
                <mxCell id="PQb2BEmIrWeKtVIQbU1g-12" value="Yes" style="rounded=0;whiteSpace=wrap;html=1;fillStyle=auto;fontSize=14;fillColor=#60a917;strokeColor=#2D7600;fontColor=#ffffff;" vertex="1" parent="PQb2BEmIrWeKtVIQbU1g-1">
                    <mxGeometry x="790" y="190" width="60" height="30" as="geometry"/>
                </mxCell>
                <mxCell id="PQb2BEmIrWeKtVIQbU1g-13" value="" style="edgeStyle=none;html=1;fontSize=14;" edge="1" parent="PQb2BEmIrWeKtVIQbU1g-1" source="PQb2BEmIrWeKtVIQbU1g-10" target="PQb2BEmIrWeKtVIQbU1g-12">
                    <mxGeometry relative="1" as="geometry"/>
                </mxCell>
                <mxCell id="PQb2BEmIrWeKtVIQbU1g-14" value="No" style="rounded=0;whiteSpace=wrap;html=1;fillStyle=auto;fontSize=14;fillColor=#a20025;strokeColor=#6F0000;fontColor=#ffffff;" vertex="1" parent="PQb2BEmIrWeKtVIQbU1g-1">
                    <mxGeometry x="660" y="260" width="60" height="30" as="geometry"/>
                </mxCell>
                <mxCell id="PQb2BEmIrWeKtVIQbU1g-15" value="" style="edgeStyle=none;html=1;fontSize=14;" edge="1" parent="PQb2BEmIrWeKtVIQbU1g-1" source="PQb2BEmIrWeKtVIQbU1g-10" target="PQb2BEmIrWeKtVIQbU1g-14">
                    <mxGeometry relative="1" as="geometry"/>
                </mxCell>
                <mxCell id="PQb2BEmIrWeKtVIQbU1g-16" style="edgeStyle=none;html=1;exitX=1;exitY=0.5;exitDx=0;exitDy=0;entryX=1;entryY=0.5;entryDx=0;entryDy=0;fontSize=14;" edge="1" parent="PQb2BEmIrWeKtVIQbU1g-1" source="PQb2BEmIrWeKtVIQbU1g-17" target="PQb2BEmIrWeKtVIQbU1g-2">
                    <mxGeometry relative="1" as="geometry">
                        <Array as="points">
                            <mxPoint x="880" y="350"/>
                            <mxPoint x="880" y="120"/>
                        </Array>
                    </mxGeometry>
                </mxCell>
                <mxCell id="PQb2BEmIrWeKtVIQbU1g-17" value="Send mesage to robot" style="rounded=1;whiteSpace=wrap;html=1;fillStyle=hatch;fontSize=14;fillColor=#dae8fc;gradientColor=#7ea6e0;strokeColor=#6c8ebf;" vertex="1" parent="PQb2BEmIrWeKtVIQbU1g-1">
                    <mxGeometry x="630" y="320" width="120" height="60" as="geometry"/>
                </mxCell>
                <mxCell id="PQb2BEmIrWeKtVIQbU1g-18" value="" style="edgeStyle=none;html=1;fontSize=14;" edge="1" parent="PQb2BEmIrWeKtVIQbU1g-1" source="PQb2BEmIrWeKtVIQbU1g-14" target="PQb2BEmIrWeKtVIQbU1g-17">
                    <mxGeometry relative="1" as="geometry"/>
                </mxCell>
                <mxCell id="PQb2BEmIrWeKtVIQbU1g-19" value="Process message" style="rounded=1;whiteSpace=wrap;html=1;fillStyle=hatch;fontSize=14;fillColor=#dae8fc;gradientColor=#7ea6e0;strokeColor=#6c8ebf;" vertex="1" parent="PQb2BEmIrWeKtVIQbU1g-1">
                    <mxGeometry x="115" y="320" width="120" height="60" as="geometry"/>
                </mxCell>
                <mxCell id="PQb2BEmIrWeKtVIQbU1g-20" value="" style="edgeStyle=none;html=1;fontSize=14;" edge="1" parent="PQb2BEmIrWeKtVIQbU1g-1" source="PQb2BEmIrWeKtVIQbU1g-8" target="PQb2BEmIrWeKtVIQbU1g-19">
                    <mxGeometry relative="1" as="geometry"/>
                </mxCell>
                <mxCell id="PQb2BEmIrWeKtVIQbU1g-21" value="&lt;span style=&quot;font-size: 14px;&quot;&gt;Forward to &lt;br&gt;MAU TASK?&lt;/span&gt;" style="rhombus;whiteSpace=wrap;html=1;fillStyle=auto;fontSize=16;fillColor=#f0a30a;fontColor=#000000;strokeColor=#BD7000;" vertex="1" parent="PQb2BEmIrWeKtVIQbU1g-1">
                    <mxGeometry x="107.5" y="420" width="135" height="90" as="geometry"/>
                </mxCell>
                <mxCell id="PQb2BEmIrWeKtVIQbU1g-22" value="" style="edgeStyle=none;html=1;fontSize=14;" edge="1" parent="PQb2BEmIrWeKtVIQbU1g-1" source="PQb2BEmIrWeKtVIQbU1g-19" target="PQb2BEmIrWeKtVIQbU1g-21">
                    <mxGeometry relative="1" as="geometry"/>
                </mxCell>
                <mxCell id="PQb2BEmIrWeKtVIQbU1g-23" style="edgeStyle=none;html=1;exitX=0;exitY=0.5;exitDx=0;exitDy=0;entryX=0;entryY=0.5;entryDx=0;entryDy=0;fontSize=14;" edge="1" parent="PQb2BEmIrWeKtVIQbU1g-1" source="PQb2BEmIrWeKtVIQbU1g-24" target="PQb2BEmIrWeKtVIQbU1g-2">
                    <mxGeometry relative="1" as="geometry">
                        <Array as="points">
                            <mxPoint x="85" y="555"/>
                            <mxPoint x="85" y="120"/>
                        </Array>
                    </mxGeometry>
                </mxCell>
                <mxCell id="PQb2BEmIrWeKtVIQbU1g-24" value="No" style="rounded=0;whiteSpace=wrap;html=1;fillStyle=auto;fontSize=14;fillColor=#a20025;strokeColor=#6F0000;fontColor=#ffffff;" vertex="1" parent="PQb2BEmIrWeKtVIQbU1g-1">
                    <mxGeometry x="145" y="540" width="60" height="30" as="geometry"/>
                </mxCell>
                <mxCell id="PQb2BEmIrWeKtVIQbU1g-25" value="" style="edgeStyle=none;html=1;fontSize=14;" edge="1" parent="PQb2BEmIrWeKtVIQbU1g-1" source="PQb2BEmIrWeKtVIQbU1g-21" target="PQb2BEmIrWeKtVIQbU1g-24">
                    <mxGeometry relative="1" as="geometry"/>
                </mxCell>
                <mxCell id="PQb2BEmIrWeKtVIQbU1g-26" value="Yes" style="rounded=0;whiteSpace=wrap;html=1;fillStyle=auto;fontSize=14;fillColor=#60a917;strokeColor=#2D7600;fontColor=#ffffff;" vertex="1" parent="PQb2BEmIrWeKtVIQbU1g-1">
                    <mxGeometry x="265" y="450" width="60" height="30" as="geometry"/>
                </mxCell>
                <mxCell id="PQb2BEmIrWeKtVIQbU1g-27" value="" style="edgeStyle=none;html=1;fontSize=14;" edge="1" parent="PQb2BEmIrWeKtVIQbU1g-1" source="PQb2BEmIrWeKtVIQbU1g-21" target="PQb2BEmIrWeKtVIQbU1g-26">
                    <mxGeometry relative="1" as="geometry"/>
                </mxCell>
                <mxCell id="PQb2BEmIrWeKtVIQbU1g-28" value="&lt;font style=&quot;font-size: 14px;&quot;&gt;Is recv null?&lt;/font&gt;" style="rhombus;whiteSpace=wrap;html=1;fillStyle=auto;fontSize=16;fillColor=#f0a30a;fontColor=#000000;strokeColor=#BD7000;" vertex="1" parent="PQb2BEmIrWeKtVIQbU1g-1">
                    <mxGeometry x="365" y="430" width="110" height="70" as="geometry"/>
                </mxCell>
                <mxCell id="PQb2BEmIrWeKtVIQbU1g-29" value="" style="edgeStyle=none;html=1;fontSize=14;" edge="1" parent="PQb2BEmIrWeKtVIQbU1g-1" source="PQb2BEmIrWeKtVIQbU1g-26" target="PQb2BEmIrWeKtVIQbU1g-28">
                    <mxGeometry relative="1" as="geometry"/>
                </mxCell>
                <mxCell id="PQb2BEmIrWeKtVIQbU1g-30" value="Yes" style="rounded=0;whiteSpace=wrap;html=1;fillStyle=auto;fontSize=14;fillColor=#60a917;strokeColor=#2D7600;fontColor=#ffffff;" vertex="1" parent="PQb2BEmIrWeKtVIQbU1g-1">
                    <mxGeometry x="390" y="540" width="60" height="30" as="geometry"/>
                </mxCell>
                <mxCell id="PQb2BEmIrWeKtVIQbU1g-31" value="" style="edgeStyle=none;html=1;fontSize=14;" edge="1" parent="PQb2BEmIrWeKtVIQbU1g-1" source="PQb2BEmIrWeKtVIQbU1g-28" target="PQb2BEmIrWeKtVIQbU1g-30">
                    <mxGeometry relative="1" as="geometry"/>
                </mxCell>
                <mxCell id="PQb2BEmIrWeKtVIQbU1g-32" value="No" style="rounded=0;whiteSpace=wrap;html=1;fillStyle=auto;fontSize=14;fillColor=#a20025;strokeColor=#6F0000;fontColor=#ffffff;" vertex="1" parent="PQb2BEmIrWeKtVIQbU1g-1">
                    <mxGeometry x="520" y="450" width="60" height="30" as="geometry"/>
                </mxCell>
                <mxCell id="PQb2BEmIrWeKtVIQbU1g-33" value="" style="edgeStyle=none;html=1;fontSize=14;" edge="1" parent="PQb2BEmIrWeKtVIQbU1g-1" source="PQb2BEmIrWeKtVIQbU1g-28" target="PQb2BEmIrWeKtVIQbU1g-32">
                    <mxGeometry relative="1" as="geometry"/>
                </mxCell>
                <mxCell id="PQb2BEmIrWeKtVIQbU1g-34" value="Write message to recv" style="rounded=1;whiteSpace=wrap;html=1;fillStyle=hatch;fontSize=14;fillColor=#dae8fc;gradientColor=#7ea6e0;strokeColor=#6c8ebf;" vertex="1" parent="PQb2BEmIrWeKtVIQbU1g-1">
                    <mxGeometry x="360" y="610" width="120" height="60" as="geometry"/>
                </mxCell>
                <mxCell id="PQb2BEmIrWeKtVIQbU1g-35" value="" style="edgeStyle=none;html=1;fontSize=14;" edge="1" parent="PQb2BEmIrWeKtVIQbU1g-1" source="PQb2BEmIrWeKtVIQbU1g-30" target="PQb2BEmIrWeKtVIQbU1g-34">
                    <mxGeometry relative="1" as="geometry"/>
                </mxCell>
                <mxCell id="PQb2BEmIrWeKtVIQbU1g-36" value="" style="edgeStyle=none;html=1;fontSize=14;" edge="1" parent="PQb2BEmIrWeKtVIQbU1g-1" source="PQb2BEmIrWeKtVIQbU1g-38" target="PQb2BEmIrWeKtVIQbU1g-40">
                    <mxGeometry relative="1" as="geometry"/>
                </mxCell>
                <mxCell id="PQb2BEmIrWeKtVIQbU1g-37" value="" style="edgeStyle=none;html=1;fontSize=14;" edge="1" parent="PQb2BEmIrWeKtVIQbU1g-1" source="PQb2BEmIrWeKtVIQbU1g-38" target="PQb2BEmIrWeKtVIQbU1g-42">
                    <mxGeometry relative="1" as="geometry"/>
                </mxCell>
                <mxCell id="PQb2BEmIrWeKtVIQbU1g-38" value="&lt;font style=&quot;font-size: 14px;&quot;&gt;Is error null?&lt;/font&gt;" style="rhombus;whiteSpace=wrap;html=1;fillStyle=auto;fontSize=16;fillColor=#f0a30a;fontColor=#000000;strokeColor=#BD7000;" vertex="1" parent="PQb2BEmIrWeKtVIQbU1g-1">
                    <mxGeometry x="340" y="170" width="110" height="70" as="geometry"/>
                </mxCell>
                <mxCell id="PQb2BEmIrWeKtVIQbU1g-39" value="" style="edgeStyle=none;html=1;fontSize=14;" edge="1" parent="PQb2BEmIrWeKtVIQbU1g-1" source="PQb2BEmIrWeKtVIQbU1g-40" target="PQb2BEmIrWeKtVIQbU1g-10">
                    <mxGeometry relative="1" as="geometry"/>
                </mxCell>
                <mxCell id="PQb2BEmIrWeKtVIQbU1g-40" value="No" style="rounded=0;whiteSpace=wrap;html=1;fillStyle=auto;fontSize=14;fillColor=#a20025;strokeColor=#6F0000;fontColor=#ffffff;" vertex="1" parent="PQb2BEmIrWeKtVIQbU1g-1">
                    <mxGeometry x="475" y="190" width="60" height="30" as="geometry"/>
                </mxCell>
                <mxCell id="PQb2BEmIrWeKtVIQbU1g-41" value="" style="edgeStyle=none;html=1;fontSize=14;" edge="1" parent="PQb2BEmIrWeKtVIQbU1g-1" source="PQb2BEmIrWeKtVIQbU1g-42" target="PQb2BEmIrWeKtVIQbU1g-44">
                    <mxGeometry relative="1" as="geometry"/>
                </mxCell>
                <mxCell id="PQb2BEmIrWeKtVIQbU1g-42" value="Yes" style="rounded=0;whiteSpace=wrap;html=1;fillStyle=auto;fontSize=14;fillColor=#60a917;strokeColor=#2D7600;fontColor=#ffffff;" vertex="1" parent="PQb2BEmIrWeKtVIQbU1g-1">
                    <mxGeometry x="365" y="260" width="60" height="30" as="geometry"/>
                </mxCell>
                <mxCell id="PQb2BEmIrWeKtVIQbU1g-43" style="edgeStyle=none;html=1;exitX=1;exitY=0.5;exitDx=0;exitDy=0;entryX=0;entryY=0.5;entryDx=0;entryDy=0;fontSize=14;" edge="1" parent="PQb2BEmIrWeKtVIQbU1g-1" source="PQb2BEmIrWeKtVIQbU1g-44" target="PQb2BEmIrWeKtVIQbU1g-10">
                    <mxGeometry relative="1" as="geometry">
                        <Array as="points">
                            <mxPoint x="580" y="350"/>
                            <mxPoint x="580" y="205"/>
                        </Array>
                    </mxGeometry>
                </mxCell>
                <mxCell id="PQb2BEmIrWeKtVIQbU1g-44" value="Send error to robot" style="rounded=1;whiteSpace=wrap;html=1;fillStyle=hatch;fontSize=14;fillColor=#dae8fc;gradientColor=#7ea6e0;strokeColor=#6c8ebf;" vertex="1" parent="PQb2BEmIrWeKtVIQbU1g-1">
                    <mxGeometry x="335" y="320" width="120" height="60" as="geometry"/>
                </mxCell>
                <mxCell id="PQb2BEmIrWeKtVIQbU1g-45" value="Send BUSY to robot" style="rounded=1;whiteSpace=wrap;html=1;fillStyle=hatch;fontSize=14;fillColor=#dae8fc;gradientColor=#7ea6e0;strokeColor=#6c8ebf;" vertex="1" parent="PQb2BEmIrWeKtVIQbU1g-1">
                    <mxGeometry x="860" y="435" width="120" height="60" as="geometry"/>
                </mxCell>
                <mxCell id="PQb2BEmIrWeKtVIQbU1g-46" style="edgeStyle=none;html=1;exitX=0.5;exitY=0;exitDx=0;exitDy=0;entryX=1;entryY=0.25;entryDx=0;entryDy=0;fontSize=14;" edge="1" parent="PQb2BEmIrWeKtVIQbU1g-1" source="PQb2BEmIrWeKtVIQbU1g-45" target="PQb2BEmIrWeKtVIQbU1g-2">
                    <mxGeometry relative="1" as="geometry">
                        <Array as="points">
                            <mxPoint x="920" y="105"/>
                        </Array>
                    </mxGeometry>
                </mxCell>
                <mxCell id="PQb2BEmIrWeKtVIQbU1g-47" value="" style="edgeStyle=none;html=1;fontSize=14;" edge="1" parent="PQb2BEmIrWeKtVIQbU1g-1" source="PQb2BEmIrWeKtVIQbU1g-32" target="PQb2BEmIrWeKtVIQbU1g-45">
                    <mxGeometry relative="1" as="geometry"/>
                </mxCell>
                <mxCell id="PQb2BEmIrWeKtVIQbU1g-48" value="Give notification" style="rounded=1;whiteSpace=wrap;html=1;fillStyle=hatch;fontSize=14;fillColor=#dae8fc;gradientColor=#7ea6e0;strokeColor=#6c8ebf;" vertex="1" parent="PQb2BEmIrWeKtVIQbU1g-1">
                    <mxGeometry x="860" y="610" width="120" height="60" as="geometry"/>
                </mxCell>
                <mxCell id="PQb2BEmIrWeKtVIQbU1g-49" style="edgeStyle=none;html=1;exitX=1;exitY=0.5;exitDx=0;exitDy=0;entryX=0.75;entryY=0;entryDx=0;entryDy=0;fontSize=14;" edge="1" parent="PQb2BEmIrWeKtVIQbU1g-1" source="PQb2BEmIrWeKtVIQbU1g-48" target="PQb2BEmIrWeKtVIQbU1g-2">
                    <mxGeometry relative="1" as="geometry">
                        <Array as="points">
                            <mxPoint x="1070" y="640"/>
                            <mxPoint x="1070" y="70"/>
                            <mxPoint x="205" y="60"/>
                        </Array>
                    </mxGeometry>
                </mxCell>
                <mxCell id="PQb2BEmIrWeKtVIQbU1g-50" style="edgeStyle=none;html=1;exitX=1;exitY=0.5;exitDx=0;exitDy=0;fontSize=14;" edge="1" parent="PQb2BEmIrWeKtVIQbU1g-1" source="PQb2BEmIrWeKtVIQbU1g-34" target="PQb2BEmIrWeKtVIQbU1g-48">
                    <mxGeometry relative="1" as="geometry"/>
                </mxCell>
            </root>
        </mxGraphModel>
    </diagram>
    <diagram id="DgqkiNvfTZxDaZ-K0nEw" name="MAU Task">
        <mxGraphModel dx="3356" dy="484" grid="1" gridSize="10" guides="1" tooltips="1" connect="1" arrows="1" fold="1" page="1" pageScale="1" pageWidth="850" pageHeight="1100" math="0" shadow="0">
            <root>
                <mxCell id="0"/>
                <mxCell id="1" parent="0"/>
                <mxCell id="dpZSkmQtpYN7T9azD21x-1" value="MAU TASK" style="swimlane;whiteSpace=wrap;html=1;fillStyle=auto;fontSize=14;fillColor=#e6d0de;gradientColor=#d5739d;strokeColor=#996185;" vertex="1" parent="1">
                    <mxGeometry y="1100" width="850" height="680" as="geometry"/>
                </mxCell>
                <mxCell id="dpZSkmQtpYN7T9azD21x-2" value="" style="edgeStyle=none;html=1;fontSize=14;" edge="1" parent="dpZSkmQtpYN7T9azD21x-1" source="dpZSkmQtpYN7T9azD21x-3" target="dpZSkmQtpYN7T9azD21x-5">
                    <mxGeometry relative="1" as="geometry"/>
                </mxCell>
                <mxCell id="dpZSkmQtpYN7T9azD21x-3" value="Take notificaiton" style="rounded=1;whiteSpace=wrap;html=1;fillColor=#dae8fc;gradientColor=#7ea6e0;strokeColor=#6c8ebf;" vertex="1" parent="dpZSkmQtpYN7T9azD21x-1">
                    <mxGeometry x="275" y="45" width="120" height="60" as="geometry"/>
                </mxCell>
                <mxCell id="dpZSkmQtpYN7T9azD21x-4" value="" style="edgeStyle=none;html=1;fontSize=14;" edge="1" parent="dpZSkmQtpYN7T9azD21x-1" source="dpZSkmQtpYN7T9azD21x-5" target="dpZSkmQtpYN7T9azD21x-7">
                    <mxGeometry relative="1" as="geometry"/>
                </mxCell>
                <mxCell id="dpZSkmQtpYN7T9azD21x-5" value="Read recv" style="rounded=1;whiteSpace=wrap;html=1;fillColor=#dae8fc;gradientColor=#7ea6e0;strokeColor=#6c8ebf;" vertex="1" parent="dpZSkmQtpYN7T9azD21x-1">
                    <mxGeometry x="275" y="135" width="120" height="60" as="geometry"/>
                </mxCell>
                <mxCell id="dpZSkmQtpYN7T9azD21x-6" value="" style="edgeStyle=none;html=1;fontSize=14;" edge="1" parent="dpZSkmQtpYN7T9azD21x-1" source="dpZSkmQtpYN7T9azD21x-7" target="dpZSkmQtpYN7T9azD21x-10">
                    <mxGeometry relative="1" as="geometry"/>
                </mxCell>
                <mxCell id="dpZSkmQtpYN7T9azD21x-7" value="Send to MAU" style="rounded=1;whiteSpace=wrap;html=1;fillColor=#dae8fc;gradientColor=#7ea6e0;strokeColor=#6c8ebf;" vertex="1" parent="dpZSkmQtpYN7T9azD21x-1">
                    <mxGeometry x="275" y="225" width="120" height="60" as="geometry"/>
                </mxCell>
                <mxCell id="dpZSkmQtpYN7T9azD21x-8" value="" style="edgeStyle=none;html=1;fontSize=14;" edge="1" parent="dpZSkmQtpYN7T9azD21x-1" source="dpZSkmQtpYN7T9azD21x-10" target="dpZSkmQtpYN7T9azD21x-12">
                    <mxGeometry relative="1" as="geometry"/>
                </mxCell>
                <mxCell id="dpZSkmQtpYN7T9azD21x-9" value="" style="edgeStyle=none;html=1;fontSize=14;" edge="1" parent="dpZSkmQtpYN7T9azD21x-1" source="dpZSkmQtpYN7T9azD21x-10" target="dpZSkmQtpYN7T9azD21x-16">
                    <mxGeometry relative="1" as="geometry"/>
                </mxCell>
                <mxCell id="dpZSkmQtpYN7T9azD21x-10" value="&lt;font style=&quot;font-size: 14px;&quot;&gt;Success?&lt;/font&gt;" style="rhombus;whiteSpace=wrap;html=1;fillStyle=auto;fontSize=16;fillColor=#f0a30a;fontColor=#000000;strokeColor=#BD7000;" vertex="1" parent="dpZSkmQtpYN7T9azD21x-1">
                    <mxGeometry x="280" y="315" width="110" height="70" as="geometry"/>
                </mxCell>
                <mxCell id="dpZSkmQtpYN7T9azD21x-11" value="" style="edgeStyle=none;html=1;fontSize=14;" edge="1" parent="dpZSkmQtpYN7T9azD21x-1" source="dpZSkmQtpYN7T9azD21x-12" target="dpZSkmQtpYN7T9azD21x-14">
                    <mxGeometry relative="1" as="geometry"/>
                </mxCell>
                <mxCell id="dpZSkmQtpYN7T9azD21x-12" value="No" style="rounded=0;whiteSpace=wrap;html=1;fillStyle=auto;fontSize=14;fillColor=#a20025;strokeColor=#6F0000;fontColor=#ffffff;" vertex="1" parent="dpZSkmQtpYN7T9azD21x-1">
                    <mxGeometry x="430" y="335" width="60" height="30" as="geometry"/>
                </mxCell>
                <mxCell id="dpZSkmQtpYN7T9azD21x-13" style="edgeStyle=none;html=1;exitX=0.5;exitY=0;exitDx=0;exitDy=0;entryX=1;entryY=0.5;entryDx=0;entryDy=0;fontSize=14;" edge="1" parent="dpZSkmQtpYN7T9azD21x-1" source="dpZSkmQtpYN7T9azD21x-14" target="dpZSkmQtpYN7T9azD21x-3">
                    <mxGeometry relative="1" as="geometry">
                        <Array as="points">
                            <mxPoint x="600" y="75"/>
                        </Array>
                    </mxGeometry>
                </mxCell>
                <mxCell id="dpZSkmQtpYN7T9azD21x-14" value="Send error" style="rounded=1;whiteSpace=wrap;html=1;fillColor=#dae8fc;gradientColor=#7ea6e0;strokeColor=#6c8ebf;" vertex="1" parent="dpZSkmQtpYN7T9azD21x-1">
                    <mxGeometry x="540" y="320" width="120" height="60" as="geometry"/>
                </mxCell>
                <mxCell id="dpZSkmQtpYN7T9azD21x-15" value="" style="edgeStyle=none;html=1;fontSize=14;" edge="1" parent="dpZSkmQtpYN7T9azD21x-1" source="dpZSkmQtpYN7T9azD21x-16" target="dpZSkmQtpYN7T9azD21x-18">
                    <mxGeometry relative="1" as="geometry"/>
                </mxCell>
                <mxCell id="dpZSkmQtpYN7T9azD21x-16" value="Yes" style="rounded=0;whiteSpace=wrap;html=1;fillStyle=auto;fontSize=14;fillColor=#60a917;strokeColor=#2D7600;fontColor=#ffffff;" vertex="1" parent="dpZSkmQtpYN7T9azD21x-1">
                    <mxGeometry x="305" y="415" width="60" height="30" as="geometry"/>
                </mxCell>
                <mxCell id="dpZSkmQtpYN7T9azD21x-17" value="" style="edgeStyle=none;html=1;fontSize=14;" edge="1" parent="dpZSkmQtpYN7T9azD21x-1" source="dpZSkmQtpYN7T9azD21x-18" target="dpZSkmQtpYN7T9azD21x-21">
                    <mxGeometry relative="1" as="geometry"/>
                </mxCell>
                <mxCell id="dpZSkmQtpYN7T9azD21x-18" value="Wait for MAU reply" style="rounded=1;whiteSpace=wrap;html=1;fillColor=#dae8fc;gradientColor=#7ea6e0;strokeColor=#6c8ebf;" vertex="1" parent="dpZSkmQtpYN7T9azD21x-1">
                    <mxGeometry x="275" y="485" width="120" height="60" as="geometry"/>
                </mxCell>
                <mxCell id="dpZSkmQtpYN7T9azD21x-19" value="" style="edgeStyle=none;html=1;fontSize=14;" edge="1" parent="dpZSkmQtpYN7T9azD21x-1" source="dpZSkmQtpYN7T9azD21x-21" target="dpZSkmQtpYN7T9azD21x-23">
                    <mxGeometry relative="1" as="geometry"/>
                </mxCell>
                <mxCell id="dpZSkmQtpYN7T9azD21x-20" value="" style="edgeStyle=none;html=1;fontSize=14;" edge="1" parent="dpZSkmQtpYN7T9azD21x-1" source="dpZSkmQtpYN7T9azD21x-21" target="dpZSkmQtpYN7T9azD21x-25">
                    <mxGeometry relative="1" as="geometry"/>
                </mxCell>
                <mxCell id="dpZSkmQtpYN7T9azD21x-21" value="&lt;font style=&quot;font-size: 14px;&quot;&gt;Expected&amp;nbsp;&lt;br&gt;result?&lt;br&gt;&lt;/font&gt;" style="rhombus;whiteSpace=wrap;html=1;fillStyle=auto;fontSize=16;fillColor=#f0a30a;fontColor=#000000;strokeColor=#BD7000;" vertex="1" parent="dpZSkmQtpYN7T9azD21x-1">
                    <mxGeometry x="280" y="565" width="110" height="70" as="geometry"/>
                </mxCell>
                <mxCell id="dpZSkmQtpYN7T9azD21x-22" style="edgeStyle=none;html=1;exitX=1;exitY=0.5;exitDx=0;exitDy=0;entryX=0.5;entryY=1;entryDx=0;entryDy=0;fontSize=14;" edge="1" parent="dpZSkmQtpYN7T9azD21x-1" source="dpZSkmQtpYN7T9azD21x-23" target="dpZSkmQtpYN7T9azD21x-14">
                    <mxGeometry relative="1" as="geometry">
                        <Array as="points">
                            <mxPoint x="600" y="600"/>
                        </Array>
                    </mxGeometry>
                </mxCell>
                <mxCell id="dpZSkmQtpYN7T9azD21x-23" value="No" style="rounded=0;whiteSpace=wrap;html=1;fillStyle=auto;fontSize=14;fillColor=#a20025;strokeColor=#6F0000;fontColor=#ffffff;" vertex="1" parent="dpZSkmQtpYN7T9azD21x-1">
                    <mxGeometry x="430" y="585" width="60" height="30" as="geometry"/>
                </mxCell>
                <mxCell id="dpZSkmQtpYN7T9azD21x-24" style="edgeStyle=none;html=1;exitX=0.5;exitY=0;exitDx=0;exitDy=0;entryX=0;entryY=0.5;entryDx=0;entryDy=0;fontSize=14;" edge="1" parent="dpZSkmQtpYN7T9azD21x-1" source="dpZSkmQtpYN7T9azD21x-25" target="dpZSkmQtpYN7T9azD21x-3">
                    <mxGeometry relative="1" as="geometry">
                        <Array as="points">
                            <mxPoint x="220" y="75"/>
                        </Array>
                    </mxGeometry>
                </mxCell>
                <mxCell id="dpZSkmQtpYN7T9azD21x-25" value="Yes" style="rounded=0;whiteSpace=wrap;html=1;fillStyle=auto;fontSize=14;fillColor=#60a917;strokeColor=#2D7600;fontColor=#ffffff;" vertex="1" parent="dpZSkmQtpYN7T9azD21x-1">
                    <mxGeometry x="190" y="585" width="60" height="30" as="geometry"/>
                </mxCell>
            </root>
        </mxGraphModel>
    </diagram>
    <diagram id="bsQmk3VBsiUKOKIBUYn3" name="FIWARE Task">
        <mxGraphModel dx="1038" dy="792" grid="1" gridSize="10" guides="1" tooltips="1" connect="1" arrows="1" fold="1" page="1" pageScale="1" pageWidth="850" pageHeight="1100" math="0" shadow="0">
            <root>
                <mxCell id="0"/>
                <mxCell id="1" parent="0"/>
                <mxCell id="Cyi-YmcpDl7q5Vz5XgHM-1" value="FIWARE Task" style="swimlane;whiteSpace=wrap;html=1;fillColor=#e6d0de;strokeColor=#996185;gradientColor=#d5739d;" parent="1" vertex="1">
                    <mxGeometry width="850" height="1100" as="geometry"/>
                </mxCell>
                <mxCell id="ztiHZjVq-GujIBltoyQm-1" value="" style="edgeStyle=none;html=1;fontColor=#FFFFFF;startArrow=none;startFill=0;endArrow=classic;endFill=1;" parent="Cyi-YmcpDl7q5Vz5XgHM-1" source="Cyi-YmcpDl7q5Vz5XgHM-2" target="Cyi-YmcpDl7q5Vz5XgHM-3" edge="1">
                    <mxGeometry relative="1" as="geometry"/>
                </mxCell>
                <mxCell id="Cyi-YmcpDl7q5Vz5XgHM-2" value="Wait for incoming measurement in the queue" style="rounded=1;whiteSpace=wrap;html=1;fillColor=#dae8fc;gradientColor=#7ea6e0;strokeColor=#6c8ebf;" parent="Cyi-YmcpDl7q5Vz5XgHM-1" vertex="1">
                    <mxGeometry x="80" y="40" width="120" height="60" as="geometry"/>
                </mxCell>
                <mxCell id="ztiHZjVq-GujIBltoyQm-5" value="" style="edgeStyle=none;html=1;fontColor=#FFFFFF;startArrow=none;startFill=0;endArrow=classic;endFill=1;" parent="Cyi-YmcpDl7q5Vz5XgHM-1" source="Cyi-YmcpDl7q5Vz5XgHM-3" target="ztiHZjVq-GujIBltoyQm-4" edge="1">
                    <mxGeometry relative="1" as="geometry"/>
                </mxCell>
                <mxCell id="ztiHZjVq-GujIBltoyQm-6" value="" style="edgeStyle=none;html=1;fontColor=#FFFFFF;startArrow=none;startFill=0;endArrow=classic;endFill=1;" parent="Cyi-YmcpDl7q5Vz5XgHM-1" source="Cyi-YmcpDl7q5Vz5XgHM-3" target="ztiHZjVq-GujIBltoyQm-2" edge="1">
                    <mxGeometry relative="1" as="geometry"/>
                </mxCell>
                <mxCell id="Cyi-YmcpDl7q5Vz5XgHM-3" value="Timeout?" style="rhombus;whiteSpace=wrap;html=1;fillColor=#ffcd28;gradientColor=#ffa500;strokeColor=#d79b00;" parent="Cyi-YmcpDl7q5Vz5XgHM-1" vertex="1">
                    <mxGeometry x="80" y="150" width="120" height="80" as="geometry"/>
                </mxCell>
                <mxCell id="E_Y-px49upkzsJcYG-v--1" value="" style="edgeStyle=none;html=1;fontColor=#FFFFFF;startArrow=none;startFill=0;endArrow=classic;endFill=1;" parent="Cyi-YmcpDl7q5Vz5XgHM-1" source="ztiHZjVq-GujIBltoyQm-2" target="ztiHZjVq-GujIBltoyQm-8" edge="1">
                    <mxGeometry relative="1" as="geometry"/>
                </mxCell>
                <mxCell id="ztiHZjVq-GujIBltoyQm-2" value="YES" style="rounded=0;whiteSpace=wrap;html=1;fillColor=#008a00;strokeColor=#005700;fontColor=#ffffff;" parent="Cyi-YmcpDl7q5Vz5XgHM-1" vertex="1">
                    <mxGeometry x="230" y="170" width="80" height="40" as="geometry"/>
                </mxCell>
                <mxCell id="E_Y-px49upkzsJcYG-v--21" style="edgeStyle=none;html=1;exitX=0.5;exitY=1;exitDx=0;exitDy=0;entryX=0.5;entryY=0;entryDx=0;entryDy=0;fontColor=#FFFFFF;startArrow=none;startFill=0;endArrow=classic;endFill=1;" parent="Cyi-YmcpDl7q5Vz5XgHM-1" source="ztiHZjVq-GujIBltoyQm-4" target="E_Y-px49upkzsJcYG-v--20" edge="1">
                    <mxGeometry relative="1" as="geometry"/>
                </mxCell>
                <mxCell id="ztiHZjVq-GujIBltoyQm-4" value="NO" style="rounded=0;whiteSpace=wrap;html=1;fillColor=#a20025;strokeColor=#6F0000;fontColor=#ffffff;" parent="Cyi-YmcpDl7q5Vz5XgHM-1" vertex="1">
                    <mxGeometry x="100" y="280" width="80" height="40" as="geometry"/>
                </mxCell>
                <mxCell id="E_Y-px49upkzsJcYG-v--3" value="" style="edgeStyle=none;html=1;fontColor=#FFFFFF;startArrow=none;startFill=0;endArrow=classic;endFill=1;" parent="Cyi-YmcpDl7q5Vz5XgHM-1" source="ztiHZjVq-GujIBltoyQm-8" target="E_Y-px49upkzsJcYG-v--2" edge="1">
                    <mxGeometry relative="1" as="geometry"/>
                </mxCell>
                <mxCell id="E_Y-px49upkzsJcYG-v--6" value="" style="edgeStyle=none;html=1;fontColor=#FFFFFF;startArrow=none;startFill=0;endArrow=classic;endFill=1;" parent="Cyi-YmcpDl7q5Vz5XgHM-1" source="ztiHZjVq-GujIBltoyQm-8" target="E_Y-px49upkzsJcYG-v--5" edge="1">
                    <mxGeometry relative="1" as="geometry"/>
                </mxCell>
                <mxCell id="ztiHZjVq-GujIBltoyQm-8" value="Is &lt;br&gt;incoming command &lt;br&gt;empty?" style="rhombus;whiteSpace=wrap;html=1;fillColor=#ffcd28;gradientColor=#ffa500;strokeColor=#d79b00;" parent="Cyi-YmcpDl7q5Vz5XgHM-1" vertex="1">
                    <mxGeometry x="330" y="150" width="160" height="80" as="geometry"/>
                </mxCell>
                <mxCell id="E_Y-px49upkzsJcYG-v--4" style="edgeStyle=none;html=1;exitX=0;exitY=0.5;exitDx=0;exitDy=0;entryX=1;entryY=0.5;entryDx=0;entryDy=0;fontColor=#FFFFFF;startArrow=none;startFill=0;endArrow=classic;endFill=1;" parent="Cyi-YmcpDl7q5Vz5XgHM-1" source="E_Y-px49upkzsJcYG-v--2" target="Cyi-YmcpDl7q5Vz5XgHM-2" edge="1">
                    <mxGeometry relative="1" as="geometry">
                        <Array as="points">
                            <mxPoint x="280" y="90"/>
                            <mxPoint x="280" y="70"/>
                        </Array>
                    </mxGeometry>
                </mxCell>
                <mxCell id="E_Y-px49upkzsJcYG-v--2" value="YES" style="rounded=0;whiteSpace=wrap;html=1;fillColor=#008a00;strokeColor=#005700;fontColor=#ffffff;" parent="Cyi-YmcpDl7q5Vz5XgHM-1" vertex="1">
                    <mxGeometry x="370" y="70" width="80" height="40" as="geometry"/>
                </mxCell>
                <mxCell id="E_Y-px49upkzsJcYG-v--9" value="" style="edgeStyle=none;html=1;fontColor=#FFFFFF;startArrow=none;startFill=0;endArrow=classic;endFill=1;" parent="Cyi-YmcpDl7q5Vz5XgHM-1" source="E_Y-px49upkzsJcYG-v--5" target="E_Y-px49upkzsJcYG-v--8" edge="1">
                    <mxGeometry relative="1" as="geometry"/>
                </mxCell>
                <mxCell id="E_Y-px49upkzsJcYG-v--5" value="NO" style="rounded=0;whiteSpace=wrap;html=1;fillColor=#a20025;strokeColor=#6F0000;fontColor=#ffffff;" parent="Cyi-YmcpDl7q5Vz5XgHM-1" vertex="1">
                    <mxGeometry x="520" y="170" width="80" height="40" as="geometry"/>
                </mxCell>
                <mxCell id="E_Y-px49upkzsJcYG-v--11" value="" style="edgeStyle=none;html=1;fontColor=#FFFFFF;startArrow=none;startFill=0;endArrow=classic;endFill=1;" parent="Cyi-YmcpDl7q5Vz5XgHM-1" source="E_Y-px49upkzsJcYG-v--8" target="E_Y-px49upkzsJcYG-v--10" edge="1">
                    <mxGeometry relative="1" as="geometry"/>
                </mxCell>
                <mxCell id="E_Y-px49upkzsJcYG-v--15" value="" style="edgeStyle=none;html=1;fontColor=#FFFFFF;startArrow=none;startFill=0;endArrow=classic;endFill=1;" parent="Cyi-YmcpDl7q5Vz5XgHM-1" source="E_Y-px49upkzsJcYG-v--8" target="E_Y-px49upkzsJcYG-v--14" edge="1">
                    <mxGeometry relative="1" as="geometry"/>
                </mxCell>
                <mxCell id="E_Y-px49upkzsJcYG-v--8" value="Is &lt;br&gt;outgoing command&lt;br&gt;processed?&amp;nbsp;" style="rhombus;whiteSpace=wrap;html=1;fillColor=#ffcd28;gradientColor=#ffa500;strokeColor=#d79b00;" parent="Cyi-YmcpDl7q5Vz5XgHM-1" vertex="1">
                    <mxGeometry x="480" y="240" width="160" height="80" as="geometry"/>
                </mxCell>
                <mxCell id="E_Y-px49upkzsJcYG-v--13" value="" style="edgeStyle=none;html=1;fontColor=#FFFFFF;startArrow=none;startFill=0;endArrow=classic;endFill=1;" parent="Cyi-YmcpDl7q5Vz5XgHM-1" source="E_Y-px49upkzsJcYG-v--10" target="E_Y-px49upkzsJcYG-v--12" edge="1">
                    <mxGeometry relative="1" as="geometry"/>
                </mxCell>
                <mxCell id="E_Y-px49upkzsJcYG-v--10" value="YES" style="rounded=0;whiteSpace=wrap;html=1;fillColor=#008a00;strokeColor=#005700;fontColor=#ffffff;" parent="Cyi-YmcpDl7q5Vz5XgHM-1" vertex="1">
                    <mxGeometry x="520" y="360" width="80" height="40" as="geometry"/>
                </mxCell>
                <mxCell id="E_Y-px49upkzsJcYG-v--19" style="edgeStyle=none;html=1;exitX=1;exitY=0.5;exitDx=0;exitDy=0;entryX=1;entryY=0.25;entryDx=0;entryDy=0;fontColor=#FFFFFF;startArrow=none;startFill=0;endArrow=classic;endFill=1;" parent="Cyi-YmcpDl7q5Vz5XgHM-1" source="E_Y-px49upkzsJcYG-v--12" target="Cyi-YmcpDl7q5Vz5XgHM-2" edge="1">
                    <mxGeometry relative="1" as="geometry">
                        <Array as="points">
                            <mxPoint x="800" y="470"/>
                            <mxPoint x="800" y="55"/>
                        </Array>
                    </mxGeometry>
                </mxCell>
                <mxCell id="E_Y-px49upkzsJcYG-v--12" value="Set the outgoing command value" style="rounded=1;whiteSpace=wrap;html=1;fillColor=#dae8fc;gradientColor=#7ea6e0;strokeColor=#6c8ebf;" parent="Cyi-YmcpDl7q5Vz5XgHM-1" vertex="1">
                    <mxGeometry x="500" y="440" width="120" height="60" as="geometry"/>
                </mxCell>
                <mxCell id="E_Y-px49upkzsJcYG-v--17" value="" style="edgeStyle=none;html=1;fontColor=#FFFFFF;startArrow=none;startFill=0;endArrow=classic;endFill=1;" parent="Cyi-YmcpDl7q5Vz5XgHM-1" source="E_Y-px49upkzsJcYG-v--14" target="E_Y-px49upkzsJcYG-v--16" edge="1">
                    <mxGeometry relative="1" as="geometry"/>
                </mxCell>
                <mxCell id="E_Y-px49upkzsJcYG-v--14" value="NO" style="rounded=0;whiteSpace=wrap;html=1;fillColor=#a20025;strokeColor=#6F0000;fontColor=#ffffff;" parent="Cyi-YmcpDl7q5Vz5XgHM-1" vertex="1">
                    <mxGeometry x="670" y="260" width="80" height="40" as="geometry"/>
                </mxCell>
                <mxCell id="E_Y-px49upkzsJcYG-v--18" style="edgeStyle=none;html=1;exitX=1;exitY=0.5;exitDx=0;exitDy=0;entryX=1;entryY=0.25;entryDx=0;entryDy=0;fontColor=#FFFFFF;startArrow=none;startFill=0;endArrow=classic;endFill=1;" parent="Cyi-YmcpDl7q5Vz5XgHM-1" source="E_Y-px49upkzsJcYG-v--16" target="Cyi-YmcpDl7q5Vz5XgHM-2" edge="1">
                    <mxGeometry relative="1" as="geometry">
                        <Array as="points">
                            <mxPoint x="800" y="380"/>
                            <mxPoint x="800" y="55"/>
                        </Array>
                    </mxGeometry>
                </mxCell>
                <mxCell id="E_Y-px49upkzsJcYG-v--16" value="Send back and error" style="rounded=1;whiteSpace=wrap;html=1;fillColor=#dae8fc;gradientColor=#7ea6e0;strokeColor=#6c8ebf;" parent="Cyi-YmcpDl7q5Vz5XgHM-1" vertex="1">
                    <mxGeometry x="650" y="350" width="120" height="60" as="geometry"/>
                </mxCell>
                <mxCell id="E_Y-px49upkzsJcYG-v--22" style="edgeStyle=none;html=1;exitX=0;exitY=0.5;exitDx=0;exitDy=0;entryX=0;entryY=0.5;entryDx=0;entryDy=0;fontColor=#FFFFFF;startArrow=none;startFill=0;endArrow=classic;endFill=1;" parent="Cyi-YmcpDl7q5Vz5XgHM-1" source="E_Y-px49upkzsJcYG-v--20" target="Cyi-YmcpDl7q5Vz5XgHM-2" edge="1">
                    <mxGeometry relative="1" as="geometry">
                        <Array as="points">
                            <mxPoint x="30" y="470"/>
                            <mxPoint x="30" y="70"/>
                        </Array>
                    </mxGeometry>
                </mxCell>
                <mxCell id="E_Y-px49upkzsJcYG-v--20" value="Send measurement" style="rounded=1;whiteSpace=wrap;html=1;fillColor=#dae8fc;gradientColor=#7ea6e0;strokeColor=#6c8ebf;" parent="Cyi-YmcpDl7q5Vz5XgHM-1" vertex="1">
                    <mxGeometry x="80" y="440" width="120" height="60" as="geometry"/>
                </mxCell>
            </root>
        </mxGraphModel>
    </diagram>
</mxfile>